<svg xmlns="http://www.w3.org/2000/svg" xmlns:xlink="http://www.w3.org/1999/xlink" version="1.1" x="0px" y="0px" viewBox="0 0 100 125" enable-background="new 0 0 100 100" xml:space="preserve"><path d="M79.203,20.212c-1.244,0-2.256,1.012-2.256,2.256s1.012,2.256,2.256,2.256s2.256-1.012,2.256-2.256  S80.447,20.212,79.203,20.212z M79.203,23.224c-0.417,0-0.756-0.338-0.756-0.756c0-0.416,0.339-0.756,0.756-0.756  s0.756,0.34,0.756,0.756C79.959,22.886,79.62,23.224,79.203,23.224z M30.659,68.732c-0.817,0-1.482,0.664-1.482,1.482  s0.665,1.482,1.482,1.482s1.482-0.664,1.482-1.482S31.477,68.732,30.659,68.732z M66.354,61.467c-0.817,0-1.482,0.664-1.482,1.482  s0.665,1.482,1.482,1.482s1.482-0.664,1.482-1.482S67.171,61.467,66.354,61.467z M83.917,28.844c-0.817,0-1.482,0.665-1.482,1.483  c0,0.817,0.665,1.482,1.482,1.482s1.482-0.665,1.482-1.482C85.399,29.509,84.734,28.844,83.917,28.844z M43.838,31.811  c0.818,0,1.484-0.665,1.484-1.483s-0.666-1.484-1.484-1.484s-1.484,0.666-1.484,1.484S43.02,31.811,43.838,31.811z M72.182,46.158  c-0.818,0-1.484,0.665-1.484,1.483s0.666,1.484,1.484,1.484s1.484-0.666,1.484-1.484S73,46.158,72.182,46.158z M62.051,21.712  c0.818,0,1.484-0.666,1.484-1.484s-0.666-1.484-1.484-1.484s-1.484,0.666-1.484,1.484S61.232,21.712,62.051,21.712z M75.887,50.516  c-1.412,0-2.561,1.148-2.561,2.563c0,1.412,1.148,2.561,2.561,2.561s2.561-1.148,2.561-2.561  C78.447,51.664,77.299,50.516,75.887,50.516z M75.887,54.139c-0.585,0-1.061-0.477-1.061-1.061c0-0.586,0.476-1.063,1.061-1.063  s1.061,0.477,1.061,1.063C76.947,53.662,76.472,54.139,75.887,54.139z M52.651,22.185c2.458,0,4.457-2,4.457-4.459  c0-2.457-1.999-4.457-4.457-4.457s-4.459,2-4.459,4.457C48.192,20.185,50.193,22.185,52.651,22.185z M52.651,14.769  c1.631,0,2.957,1.326,2.957,2.957s-1.326,2.959-2.957,2.959c-1.632,0-2.959-1.328-2.959-2.959S51.02,14.769,52.651,14.769z   M17.551,28.843c-0.818,0-1.484,0.666-1.484,1.484s0.666,1.484,1.484,1.484s1.484-0.666,1.484-1.484S18.369,28.843,17.551,28.843z   M16.083,54.52c-0.817,0-1.482,0.664-1.482,1.482s0.665,1.482,1.482,1.482s1.483-0.664,1.483-1.482S16.9,54.52,16.083,54.52z   M51.27,53.076c0,0.518,0.418,0.936,0.936,0.936c0.516,0,0.934-0.418,0.934-0.936c0-0.516-0.418-0.934-0.934-0.934  C51.688,52.143,51.27,52.561,51.27,53.076z M59.516,58.777c0.404-0.01,0.73-0.338,0.73-0.746v-2.029c0-0.414-0.336-0.75-0.75-0.75  h-3.25v-2.176c0-1.469-0.797-2.746-1.973-3.453l-0.722-2.114l1.909-0.651l3.113-1.063c0.393-0.135,0.602-0.561,0.468-0.952  l-1.053-3.085l2.484-0.848l0.02,0.059c0.064,0.188,0.201,0.344,0.38,0.432c0.104,0.051,0.217,0.076,0.33,0.076  c0.082,0,0.164-0.014,0.242-0.04l1.992-0.681c0.132,0.243,0.38,0.396,0.65,0.396c0.08,0,0.162-0.013,0.242-0.04l11.197-3.823  c0.393-0.134,0.602-0.561,0.468-0.952l-0.18-0.526c0.883-1.566,1.067-3.41,0.482-5.123c-0.587-1.713-1.859-3.059-3.514-3.758  l-0.18-0.525c-0.064-0.188-0.201-0.344-0.38-0.432c-0.178-0.088-0.384-0.1-0.572-0.036l-11.199,3.823  c-0.188,0.064-0.344,0.201-0.431,0.379c-0.069,0.141-0.078,0.296-0.054,0.447l-1.994,0.682c-0.393,0.135-0.602,0.561-0.468,0.952  l0.021,0.059l-2.484,0.849l-0.222-0.65c-0.064-0.188-0.201-0.344-0.379-0.432c-0.18-0.086-0.384-0.1-0.573-0.036l-3.115,1.063  c-0.188,0.064-0.344,0.201-0.432,0.379c-0.087,0.18-0.1,0.385-0.036,0.573l0.222,0.65l-8.123,2.773l-0.222-0.65  c-0.134-0.393-0.56-0.601-0.952-0.468l-3.115,1.063c-0.188,0.064-0.344,0.2-0.432,0.38c-0.087,0.178-0.1,0.385-0.036,0.572  l0.222,0.65l-1.401,0.479l-2.694-2.217l3.848-1.313c0.188-0.064,0.344-0.201,0.432-0.379c0.087-0.18,0.1-0.385,0.036-0.573  l-0.909-2.662c-0.135-0.392-0.561-0.603-0.952-0.468l-8.201,2.801c-0.188,0.064-0.343,0.201-0.431,0.379  c-0.088,0.18-0.102,0.385-0.037,0.574l0.909,2.66c0.106,0.313,0.397,0.508,0.71,0.508c0.08,0,0.162-0.013,0.242-0.04l2.685-0.917  l2.694,2.217l-2.016,0.688c-0.188,0.064-0.344,0.2-0.432,0.38c-0.087,0.178-0.1,0.385-0.036,0.572l0.195,0.572l-3.389,1.156  l-0.195-0.571c-0.064-0.188-0.2-0.343-0.38-0.431c-0.178-0.088-0.383-0.102-0.572-0.037l-3.511,1.199l-1.1-3.224  c-0.064-0.188-0.2-0.343-0.38-0.431c-0.178-0.088-0.383-0.102-0.572-0.037l-2.89,0.986c-0.188,0.064-0.343,0.201-0.431,0.379  c-0.088,0.18-0.102,0.385-0.037,0.573l1.101,3.224l-0.62,0.212c-0.393,0.134-0.602,0.56-0.468,0.952l0.773,2.269  c0.073,0.215,0.24,0.386,0.454,0.463l7.84,2.843c0.082,0.031,0.17,0.045,0.256,0.045c0.082,0,0.164-0.014,0.242-0.039l2.288-0.781  c0.392-0.135,0.602-0.561,0.468-0.953l-0.195-0.573l1.473-0.504c0.023,0.201,0.064,0.399,0.131,0.595  c0.394,1.152,1.475,1.925,2.689,1.925l0,0c0.313,0,0.623-0.051,0.92-0.152c0.719-0.246,1.3-0.756,1.635-1.438  c0.221-0.449,0.305-0.938,0.274-1.426l2.502-0.854l1.053,3.083c0.106,0.313,0.397,0.508,0.71,0.508c0.08,0,0.162-0.012,0.242-0.039  l3.115-1.063l1.908-0.651l0.68,1.994c-0.219,0.496-0.344,1.041-0.344,1.617v2.176h-3.25c-0.414,0-0.75,0.336-0.75,0.75v0.264h-4.957  c-0.088-0.012-1.634,0.006-2.896,1.266l-1.922,1.924c-0.271-0.125-0.571-0.199-0.89-0.199c-1.185,0-2.148,0.965-2.148,2.148  c0,1.186,0.964,2.148,2.147,2.148c1.185,0,2.148-0.963,2.148-2.148c0-0.316-0.074-0.617-0.197-0.889l1.922-1.924  c0.807-0.805,1.793-0.826,1.832-0.826h4.961v0.266c0,0.408,0.326,0.736,0.73,0.746l-7.561,27.002  c-0.063,0.225-0.017,0.469,0.125,0.654c0.143,0.188,0.363,0.297,0.598,0.297H40.6c0.336,0,0.631-0.223,0.723-0.547l4.467-15.953  h4.486v15.75c0,0.414,0.336,0.75,0.75,0.75h2.359c0.414,0,0.75-0.336,0.75-0.75V70.23h4.484l4.469,15.953  c0.091,0.324,0.387,0.547,0.723,0.547h2.543c0.234,0,0.456-0.109,0.598-0.297c0.142-0.186,0.188-0.43,0.125-0.654L59.516,58.777z   M29.625,37.083l-0.424-1.241l6.781-2.316l0.425,1.242L29.625,37.083z M33.496,62.053c-0.357,0-0.647-0.291-0.647-0.648  s0.291-0.648,0.648-0.648c0.356,0,0.647,0.291,0.647,0.648S33.854,62.053,33.496,62.053z M54.746,53.076v2.176h-5.084v-2.176  c0-1.4,1.141-2.541,2.543-2.541C53.606,50.535,54.746,51.676,54.746,53.076z M49.598,50.014l-0.353-1.034l2.887-0.985l0.365,1.07  c-0.098-0.007-0.192-0.029-0.292-0.029C51.207,49.036,50.304,49.413,49.598,50.014z M74.878,31.172  c0.265,0.774,0.298,1.581,0.16,2.361l-1.47-4.307C74.15,29.753,74.615,30.404,74.878,31.172z M71.427,27.598l2.906,8.513  l-9.777,3.339l-2.908-8.513L71.427,27.598z M60.43,32.013l2.503,7.33l-1.262,0.431l-2.502-7.329L60.43,32.013z M58.011,33.698  l1.979,5.792l-2.484,0.849l-1.978-5.792L58.011,33.698z M53.644,33.67l3.736,10.946l-1.693,0.579L51.948,34.25L53.644,33.67z   M22.167,41.544l0.858,2.514l-1.471,0.502l-0.857-2.514L22.167,41.544z M28.379,50.284l-7.254-2.632l-0.416-1.219l7.021-2.396  l1.977,5.793L28.379,50.284z M32.994,47.275l-2.306,0.787l-1.102-3.229l3.39-1.156l0.899,2.635  C33.513,46.558,33.212,46.883,32.994,47.275z M36.675,49.247c-0.158,0.321-0.433,0.563-0.773,0.679  C35.76,49.974,35.613,50,35.467,50l0,0c-0.574,0-1.084-0.367-1.27-0.912c-0.116-0.339-0.094-0.703,0.064-1.025  s0.434-0.564,0.771-0.68c0.143-0.049,0.288-0.072,0.436-0.072c0.574,0,1.086,0.365,1.271,0.909  C36.856,48.56,36.834,48.924,36.675,49.247z M37.816,47.061c-0.521-0.767-1.39-1.251-2.348-1.251c-0.059,0-0.116,0.01-0.174,0.014  l-1.337-3.914l4.377-1.494l1.978,5.793L37.816,47.061z M43.027,49.517L39.29,38.57l1.696-0.578l3.737,10.947L43.027,49.517z   M42.87,38.868l8.123-2.774l1.978,5.793l-8.123,2.773L42.87,38.868z M45.475,46.498l-0.143-0.418l8.124-2.773l0.143,0.418  L45.475,46.498z M46.144,48.455l-0.108-0.316l-0.075-0.221l8.123-2.773l0.146,0.425l0.038,0.112L46.144,48.455z M40.031,85.23  h-0.988l7.406-26.449h0.99L40.031,85.23z M50.275,68.73H46.21l2.786-9.949h1.279V68.73z M52.635,85.23h-0.859V58.781h0.859V85.23z   M45.662,57.281v-0.529h13.084v0.529H45.662z M54.135,68.73v-9.949h1.276l2.787,9.949H54.135z M64.379,85.23L56.97,58.781h0.989  l7.405,26.449H64.379z"/><text x="0" y="115" fill="#000000" font-size="5px" font-weight="bold" font-family="'Helvetica Neue', Helvetica, Arial-Unicode, Arial, Sans-serif">Created by Sergey Demushkin</text><text x="0" y="120" fill="#000000" font-size="5px" font-weight="bold" font-family="'Helvetica Neue', Helvetica, Arial-Unicode, Arial, Sans-serif">from the Noun Project</text></svg>